# Blender v3.2.2 OBJ File: 'gfx.blend'
# www.blender.org
o Sphere.003_Sphere.004
v 0.607004 1.914571 -0.444809
v 0.641312 1.812760 -0.539687
v 0.702065 1.673684 -0.582090
v 0.772984 1.534607 -0.560656
v 0.835066 1.432796 -0.481128
v 0.673049 1.950166 -0.419553
v 0.755706 1.874413 -0.495941
v 0.834156 1.744874 -0.531576
v 0.887378 1.596260 -0.516910
v 0.901112 1.468392 -0.455872
v 0.871677 1.395530 -0.364817
v 0.711519 1.964910 -0.339311
v 0.822337 1.899950 -0.356959
v 0.911095 1.774362 -0.371094
v 0.954009 1.621797 -0.377928
v 0.939581 1.483135 -0.375630
v 0.699877 1.950166 -0.251090
v 0.802174 1.874413 -0.204155
v 0.887812 1.744874 -0.194651
v 0.933845 1.596260 -0.225124
v 0.927940 1.468392 -0.287409
v 0.644944 1.914571 -0.206567
v 0.707026 1.812760 -0.127040
v 0.777945 1.673684 -0.105606
v 0.838699 1.534607 -0.148009
v 0.873007 1.432796 -0.242886
v 0.608333 1.951836 -0.322879
v 0.578899 1.878976 -0.231824
v 0.592632 1.751107 -0.170786
v 0.645854 1.602493 -0.156119
v 0.724304 1.472954 -0.191755
v 0.806961 1.397201 -0.268143
v 0.540429 1.864231 -0.312065
v 0.526001 1.725569 -0.309767
v 0.568916 1.573005 -0.316602
v 0.657673 1.447417 -0.330736
v 0.768492 1.382457 -0.348384
v 0.552071 1.878976 -0.400287
v 0.546165 1.751107 -0.462571
v 0.592199 1.602493 -0.493044
v 0.677837 1.472954 -0.483540
v 0.780133 1.397201 -0.436606
v 0.607004 1.914571 0.444809
v 0.641312 1.812760 0.539687
v 0.702065 1.673684 0.582090
v 0.772984 1.534607 0.560656
v 0.835066 1.432796 0.481128
v 0.673049 1.950166 0.419553
v 0.755706 1.874413 0.495941
v 0.834156 1.744874 0.531576
v 0.887378 1.596260 0.516910
v 0.901112 1.468392 0.455872
v 0.871677 1.395530 0.364817
v 0.711519 1.964910 0.339311
v 0.822337 1.899950 0.356959
v 0.911095 1.774362 0.371094
v 0.954009 1.621797 0.377928
v 0.939581 1.483135 0.375630
v 0.699877 1.950166 0.251090
v 0.802174 1.874413 0.204155
v 0.887812 1.744874 0.194651
v 0.933845 1.596260 0.225124
v 0.927940 1.468392 0.287409
v 0.644944 1.914571 0.206567
v 0.707026 1.812760 0.127040
v 0.777945 1.673684 0.105606
v 0.838699 1.534607 0.148009
v 0.873007 1.432796 0.242886
v 0.608333 1.951836 0.322879
v 0.578899 1.878976 0.231824
v 0.592632 1.751107 0.170786
v 0.645854 1.602493 0.156119
v 0.724304 1.472954 0.191755
v 0.806961 1.397201 0.268143
v 0.540429 1.864231 0.312065
v 0.526001 1.725569 0.309767
v 0.568916 1.573005 0.316602
v 0.657673 1.447417 0.330736
v 0.768492 1.382457 0.348384
v 0.552071 1.878976 0.400287
v 0.546165 1.751107 0.462571
v 0.592199 1.602493 0.493044
v 0.677837 1.472954 0.483540
v 0.780133 1.397201 0.436606
vn 0.4854 -0.8709 -0.0773
vn 0.2771 -0.6775 -0.6813
vn 0.7274 -0.4298 -0.5349
vn -0.1573 -0.0000 -0.9876
vn 0.6920 -0.0205 -0.7216
vn 0.0466 -0.3491 -0.9359
vn -0.4750 0.6775 -0.5615
vn 0.3440 0.6428 -0.6845
vn -0.3350 0.3491 -0.8751
vn 0.5596 0.3277 -0.7612
vn -0.4854 0.8709 0.0773
vn 0.0053 0.8996 -0.4366
vn 0.9824 0.1021 -0.1564
vn 0.6729 0.7319 -0.1072
vn 0.9304 -0.3352 -0.1482
vn 0.8884 0.4367 -0.1415
vn 0.2413 0.9697 -0.0384
vn 0.1406 0.8996 0.4134
vn 0.5396 0.6428 0.5438
vn 0.8576 -0.4298 0.2825
vn 0.7684 0.3277 0.5497
vn 0.8819 -0.0205 0.4709
vn 0.4750 -0.6775 0.5615
vn -0.0466 0.3491 0.9359
vn 0.1573 -0.0000 0.9876
vn -0.2771 0.6775 0.6813
vn 0.3350 -0.3491 0.8751
vn -0.3440 -0.6428 0.6845
vn -0.0053 -0.8996 0.4366
vn -0.6920 0.0205 0.7216
vn -0.5596 -0.3277 0.7612
vn -0.7274 0.4298 0.5349
vn -0.6729 -0.7319 0.1072
vn -0.2413 -0.9697 0.0384
vn -0.9824 -0.1021 0.1564
vn -0.8884 -0.4367 0.1415
vn -0.9304 0.3352 0.1482
vn -0.1406 -0.8996 -0.4134
vn -0.7684 -0.3277 -0.5497
vn -0.8576 0.4298 -0.2825
vn -0.5396 -0.6428 -0.5438
vn -0.8819 0.0205 -0.4709
vn 0.4854 -0.8709 0.0773
vn 0.7274 -0.4298 0.5349
vn 0.2771 -0.6775 0.6813
vn 0.6920 -0.0205 0.7216
vn -0.1573 -0.0000 0.9876
vn 0.0466 -0.3491 0.9359
vn 0.3440 0.6428 0.6845
vn -0.4750 0.6775 0.5615
vn -0.3350 0.3491 0.8751
vn 0.5596 0.3277 0.7612
vn 0.0053 0.8996 0.4366
vn -0.4854 0.8709 -0.0773
vn 0.9824 0.1021 0.1564
vn 0.6729 0.7319 0.1072
vn 0.8884 0.4367 0.1415
vn 0.2413 0.9697 0.0384
vn 0.9304 -0.3352 0.1482
vn 0.1406 0.8996 -0.4134
vn 0.8576 -0.4298 -0.2825
vn 0.5396 0.6428 -0.5438
vn 0.7684 0.3277 -0.5497
vn 0.4750 -0.6775 -0.5615
vn 0.8819 -0.0205 -0.4709
vn -0.0466 0.3491 -0.9359
vn -0.2771 0.6775 -0.6813
vn 0.1573 -0.0000 -0.9876
vn -0.3440 -0.6428 -0.6845
vn 0.3350 -0.3491 -0.8751
vn -0.6920 0.0205 -0.7216
vn -0.7274 0.4298 -0.5349
vn -0.0053 -0.8996 -0.4366
vn -0.5596 -0.3277 -0.7612
vn -0.6729 -0.7319 -0.1072
vn -0.9824 -0.1021 -0.1564
vn -0.9304 0.3352 -0.1482
vn -0.2413 -0.9697 -0.0384
vn -0.8884 -0.4367 -0.1415
vn -0.1406 -0.8996 0.4134
vn -0.7684 -0.3277 0.5497
vn -0.8576 0.4298 0.2825
vn -0.5396 -0.6428 0.5438
vn -0.8819 0.0205 0.4709
s 1
f 11//1 5//2 10//3
f 3//4 9//5 4//6
f 1//7 7//8 2//9
f 5//2 9//5 10//3
f 2//9 8//10 3//4
f 1//7 27//11 6//12
f 8//10 15//13 9//5
f 6//12 13//14 7//8
f 10//3 15//13 16//15
f 7//8 14//16 8//10
f 6//12 27//11 12//17
f 11//1 10//3 16//15
f 13//14 17//18 18//19
f 15//13 21//20 16//15
f 14//16 18//19 19//21
f 12//17 27//11 17//18
f 11//1 16//15 21//20
f 15//13 19//21 20//22
f 20//22 26//23 21//20
f 19//21 23//24 24//25
f 17//18 27//11 22//26
f 11//1 21//20 26//23
f 20//22 24//25 25//27
f 18//19 22//26 23//24
f 26//23 31//28 32//29
f 24//25 29//30 30//31
f 22//26 27//11 28//32
f 11//1 26//23 32//29
f 25//27 30//31 31//28
f 22//26 29//30 23//24
f 32//29 36//33 37//34
f 30//31 34//35 35//36
f 28//32 27//11 33//37
f 11//1 32//29 37//34
f 31//28 35//36 36//33
f 28//32 34//35 29//30
f 36//33 42//38 37//34
f 34//35 40//39 35//36
f 33//37 27//11 38//40
f 11//1 37//34 42//38
f 35//36 41//41 36//33
f 34//35 38//40 39//42
f 39//42 3//4 40//39
f 38//40 27//11 1//7
f 11//1 42//38 5//2
f 40//39 4//6 41//41
f 39//42 1//7 2//9
f 41//41 5//2 42//38
f 53//43 52//44 47//45
f 51//46 45//47 46//48
f 49//49 43//50 44//51
f 47//45 51//46 46//48
f 50//52 44//51 45//47
f 43//50 48//53 69//54
f 57//55 50//52 51//46
f 55//56 48//53 49//49
f 52//44 57//55 51//46
f 56//57 49//49 50//52
f 48//53 54//58 69//54
f 53//43 58//59 52//44
f 55//56 59//60 54//58
f 63//61 57//55 58//59
f 56//57 60//62 55//56
f 54//58 59//60 69//54
f 53//43 63//61 58//59
f 57//55 61//63 56//57
f 68//64 62//65 63//61
f 61//63 65//66 60//62
f 59//60 64//67 69//54
f 53//43 68//64 63//61
f 62//65 66//68 61//63
f 60//62 64//67 59//60
f 68//64 73//69 67//70
f 66//68 71//71 65//66
f 64//67 70//72 69//54
f 53//43 74//73 68//64
f 67//70 72//74 66//68
f 71//71 64//67 65//66
f 74//73 78//75 73//69
f 72//74 76//76 71//71
f 70//72 75//77 69//54
f 53//43 79//78 74//73
f 73//69 77//79 72//74
f 76//76 70//72 71//71
f 84//80 78//75 79//78
f 82//81 76//76 77//79
f 75//77 80//82 69//54
f 53//43 84//80 79//78
f 83//83 77//79 78//75
f 76//76 80//82 75//77
f 45//47 81//84 82//81
f 80//82 43//50 69//54
f 53//43 47//45 84//80
f 46//48 82//81 83//83
f 81//84 43//50 80//82
f 47//45 83//83 84//80
f 3//4 8//10 9//5
f 1//7 6//12 7//8
f 5//2 4//6 9//5
f 2//9 7//8 8//10
f 8//10 14//16 15//13
f 6//12 12//17 13//14
f 10//3 9//5 15//13
f 7//8 13//14 14//16
f 13//14 12//17 17//18
f 15//13 20//22 21//20
f 14//16 13//14 18//19
f 15//13 14//16 19//21
f 20//22 25//27 26//23
f 19//21 18//19 23//24
f 20//22 19//21 24//25
f 18//19 17//18 22//26
f 26//23 25//27 31//28
f 24//25 23//24 29//30
f 25//27 24//25 30//31
f 22//26 28//32 29//30
f 32//29 31//28 36//33
f 30//31 29//30 34//35
f 31//28 30//31 35//36
f 28//32 33//37 34//35
f 36//33 41//41 42//38
f 34//35 39//42 40//39
f 35//36 40//39 41//41
f 34//35 33//37 38//40
f 39//42 2//9 3//4
f 40//39 3//4 4//6
f 39//42 38//40 1//7
f 41//41 4//6 5//2
f 51//46 50//52 45//47
f 49//49 48//53 43//50
f 47//45 52//44 51//46
f 50//52 49//49 44//51
f 57//55 56//57 50//52
f 55//56 54//58 48//53
f 52//44 58//59 57//55
f 56//57 55//56 49//49
f 55//56 60//62 59//60
f 63//61 62//65 57//55
f 56//57 61//63 60//62
f 57//55 62//65 61//63
f 68//64 67//70 62//65
f 61//63 66//68 65//66
f 62//65 67//70 66//68
f 60//62 65//66 64//67
f 68//64 74//73 73//69
f 66//68 72//74 71//71
f 67//70 73//69 72//74
f 71//71 70//72 64//67
f 74//73 79//78 78//75
f 72//74 77//79 76//76
f 73//69 78//75 77//79
f 76//76 75//77 70//72
f 84//80 83//83 78//75
f 82//81 81//84 76//76
f 83//83 82//81 77//79
f 76//76 81//84 80//82
f 45//47 44//51 81//84
f 46//48 45//47 82//81
f 81//84 44//51 43//50
f 47//45 46//48 83//83
