# Blender v3.2.2 OBJ File: 'gfx.blend'
# www.blender.org
o Sphere.001_Sphere.003
v 0.000000 0.247107 -0.142667
v 0.000000 0.142667 -0.247107
v 0.000000 -0.000000 -0.285335
v 0.000000 -0.142667 -0.247107
v 0.000000 -0.247107 -0.142667
v 0.100881 0.247107 -0.100881
v 0.174731 0.142667 -0.174731
v 0.201762 -0.000000 -0.201762
v 0.174731 -0.142667 -0.174731
v 0.100881 -0.247107 -0.100881
v 0.000000 -0.285335 0.000000
v 0.142667 0.247107 0.000000
v 0.247107 0.142667 0.000000
v 0.285335 -0.000000 0.000000
v 0.247107 -0.142667 0.000000
v 0.142668 -0.247107 0.000000
v 0.100881 0.247107 0.100881
v 0.174731 0.142667 0.174731
v 0.201762 -0.000000 0.201762
v 0.174731 -0.142667 0.174731
v 0.100881 -0.247107 0.100881
v -0.000000 0.247107 0.142668
v 0.000000 0.142667 0.247107
v 0.000000 -0.000000 0.285335
v 0.000000 -0.142667 0.247107
v 0.000000 -0.247107 0.142668
v -0.000000 0.285335 0.000000
v -0.100881 0.247107 0.100881
v -0.174731 0.142667 0.174731
v -0.201762 -0.000000 0.201762
v -0.174731 -0.142667 0.174731
v -0.100881 -0.247107 0.100881
v -0.142667 0.247107 0.000000
v -0.247107 0.142667 0.000000
v -0.285335 -0.000000 0.000000
v -0.247107 -0.142667 0.000000
v -0.142667 -0.247107 0.000000
v -0.100881 0.247107 -0.100881
v -0.174731 0.142667 -0.174731
v -0.201762 -0.000000 -0.201762
v -0.174731 -0.142667 -0.174731
v -0.100881 -0.247107 -0.100881
vn -0.0000 -0.4744 -0.8803
vn 0.3855 -0.8383 -0.3855
vn -0.0000 -0.8383 -0.5452
vn -0.0000 0.4744 -0.8803
vn 0.7071 -0.0000 -0.7071
vn -0.0000 -0.0000 -1.0000
vn -0.0000 0.8383 -0.5452
vn -0.0000 1.0000 0.0000
vn 0.3855 0.8383 -0.3855
vn -0.0000 -1.0000 -0.0000
vn 0.6225 -0.4744 -0.6225
vn 0.6225 0.4744 -0.6225
vn 0.5452 0.8383 0.0000
vn 0.5452 -0.8383 0.0000
vn 0.8803 -0.4744 0.0000
vn 0.8803 0.4744 -0.0000
vn 1.0000 0.0000 -0.0000
vn 0.3855 -0.8383 0.3855
vn 0.6225 -0.4744 0.6225
vn 0.3855 0.8383 0.3855
vn 0.6225 0.4744 0.6225
vn 0.7071 -0.0000 0.7071
vn -0.0000 -0.8383 0.5452
vn -0.0000 -0.4744 0.8803
vn -0.0000 0.8383 0.5452
vn -0.0000 0.4744 0.8803
vn -0.0000 -0.0000 1.0000
vn -0.3855 -0.8383 0.3855
vn -0.6225 -0.4744 0.6225
vn -0.6225 0.4744 0.6225
vn -0.7071 -0.0000 0.7071
vn -0.3855 0.8383 0.3855
vn -0.8803 -0.4744 0.0000
vn -0.8803 0.4744 -0.0000
vn -0.5452 -0.8383 -0.0000
vn -1.0000 -0.0000 -0.0000
vn -0.5452 0.8383 -0.0000
vn -0.6225 0.4744 -0.6225
vn -0.3855 -0.8383 -0.3855
vn -0.7071 -0.0000 -0.7071
vn -0.3855 0.8383 -0.3855
vn -0.6225 -0.4744 -0.6225
s 1
f 4//1 10//2 5//3
f 2//4 8//5 3//6
f 1//7 27//8 6//9
f 11//10 5//3 10//2
f 3//6 9//11 4//1
f 1//7 7//12 2//4
f 6//9 27//8 12//13
f 11//10 10//2 16//14
f 8//5 15//15 9//11
f 6//9 13//16 7//12
f 9//11 16//14 10//2
f 7//12 14//17 8//5
f 11//10 16//14 21//18
f 14//17 20//19 15//15
f 13//16 17//20 18//21
f 16//14 20//19 21//18
f 13//16 19//22 14//17
f 12//13 27//8 17//20
f 11//10 21//18 26//23
f 19//22 25//24 20//19
f 18//21 22//25 23//26
f 20//19 26//23 21//18
f 18//21 24//27 19//22
f 17//20 27//8 22//25
f 11//10 26//23 32//28
f 24//27 31//29 25//24
f 22//25 29//30 23//26
f 26//23 31//29 32//28
f 24//27 29//30 30//31
f 22//25 27//8 28//32
f 30//31 36//33 31//29
f 28//32 34//34 29//30
f 32//28 36//33 37//35
f 29//30 35//36 30//31
f 28//32 27//8 33//37
f 11//10 32//28 37//35
f 33//37 39//38 34//34
f 36//33 42//39 37//35
f 34//34 40//40 35//36
f 33//37 27//8 38//41
f 11//10 37//35 42//39
f 35//36 41//42 36//33
f 41//42 5//3 42//39
f 39//38 3//6 40//40
f 38//41 27//8 1//7
f 11//10 42//39 5//3
f 40//40 4//1 41//42
f 38//41 2//4 39//38
f 4//1 9//11 10//2
f 2//4 7//12 8//5
f 3//6 8//5 9//11
f 1//7 6//9 7//12
f 8//5 14//17 15//15
f 6//9 12//13 13//16
f 9//11 15//15 16//14
f 7//12 13//16 14//17
f 14//17 19//22 20//19
f 13//16 12//13 17//20
f 16//14 15//15 20//19
f 13//16 18//21 19//22
f 19//22 24//27 25//24
f 18//21 17//20 22//25
f 20//19 25//24 26//23
f 18//21 23//26 24//27
f 24//27 30//31 31//29
f 22//25 28//32 29//30
f 26//23 25//24 31//29
f 24//27 23//26 29//30
f 30//31 35//36 36//33
f 28//32 33//37 34//34
f 32//28 31//29 36//33
f 29//30 34//34 35//36
f 33//37 38//41 39//38
f 36//33 41//42 42//39
f 34//34 39//38 40//40
f 35//36 40//40 41//42
f 41//42 4//1 5//3
f 39//38 2//4 3//6
f 40//40 3//6 4//1
f 38//41 1//7 2//4
