# Blender v3.2.2 OBJ File: ''
# www.blender.org
o Cube_Cube.001
v 0.000000 0.860584 -0.641000
v 0.125053 0.860584 -0.628683
v 0.245300 0.860584 -0.592207
v 0.356121 0.860584 -0.532972
v 0.453256 0.860584 -0.453255
v 0.532972 0.860584 -0.356121
v 0.592207 0.860584 -0.245300
v 0.628683 0.860584 -0.125053
v 0.641000 0.860584 0.000000
v 0.628683 0.860584 0.125053
v 0.592207 0.860584 0.245300
v 0.532972 0.860584 0.356121
v 0.453256 0.860584 0.453255
v 0.356121 0.860584 0.532972
v 0.245300 0.860584 0.592207
v 0.125053 0.860584 0.628683
v -0.000000 0.860584 0.641000
v -0.125053 0.860584 0.628683
v -0.245300 0.860584 0.592207
v -0.356121 0.860584 0.532972
v -0.453255 0.860584 0.453255
v -0.532972 0.860584 0.356121
v -0.592207 0.860584 0.245300
v -0.628683 0.860584 0.125053
v -0.641000 0.860584 -0.000000
v -0.628683 0.860584 -0.125053
v -0.592207 0.860584 -0.245300
v -0.532972 0.860584 -0.356120
v -0.453255 0.860584 -0.453255
v -0.356121 0.860584 -0.532972
v -0.245300 0.860584 -0.592207
v -0.125053 0.860584 -0.628683
v 0.000000 1.405344 -0.609689
v 0.000000 1.374183 -0.641000
v 0.118944 1.405344 -0.597974
v 0.125053 1.374183 -0.628683
v 0.233318 1.405344 -0.563279
v 0.245300 1.374183 -0.592207
v 0.338725 1.405344 -0.506938
v 0.356121 1.374183 -0.532972
v 0.431115 1.405344 -0.431115
v 0.453256 1.374183 -0.453255
v 0.506938 1.405344 -0.338725
v 0.532972 1.374183 -0.356121
v 0.563279 1.405344 -0.233318
v 0.592207 1.374183 -0.245300
v 0.597974 1.405344 -0.118944
v 0.628683 1.374183 -0.125053
v 0.609689 1.405344 0.000000
v 0.641000 1.374183 0.000000
v 0.597974 1.405344 0.118944
v 0.628683 1.374183 0.125053
v 0.563279 1.405344 0.233318
v 0.592207 1.374183 0.245300
v 0.506938 1.405344 0.338725
v 0.532972 1.374183 0.356121
v 0.431115 1.405344 0.431115
v 0.453256 1.374183 0.453255
v 0.338725 1.405344 0.506938
v 0.356121 1.374183 0.532972
v 0.233318 1.405344 0.563279
v 0.245300 1.374183 0.592207
v 0.118944 1.405344 0.597974
v 0.125053 1.374183 0.628683
v -0.000000 1.405344 0.609689
v -0.000000 1.374183 0.641000
v -0.118944 1.405344 0.597974
v -0.125053 1.374183 0.628683
v -0.233318 1.405344 0.563279
v -0.245300 1.374183 0.592207
v -0.338725 1.405344 0.506937
v -0.356121 1.374183 0.532972
v -0.431115 1.405344 0.431115
v -0.453255 1.374183 0.453255
v -0.506937 1.405344 0.338725
v -0.532972 1.374183 0.356121
v -0.563279 1.405344 0.233318
v -0.592207 1.374183 0.245300
v -0.597974 1.405344 0.118945
v -0.628683 1.374183 0.125053
v -0.609689 1.405344 -0.000000
v -0.641000 1.374183 -0.000000
v -0.597974 1.405344 -0.118944
v -0.628683 1.374183 -0.125053
v -0.563279 1.405344 -0.233318
v -0.592207 1.374183 -0.245300
v -0.506938 1.405344 -0.338725
v -0.532972 1.374183 -0.356120
v -0.431115 1.405344 -0.431115
v -0.453255 1.374183 -0.453255
v -0.338725 1.405344 -0.506938
v -0.356121 1.374183 -0.532972
v -0.233318 1.405344 -0.563279
v -0.245300 1.374183 -0.592207
v -0.118944 1.405344 -0.597974
v -0.125053 1.374183 -0.628683
v -0.951968 0.000000 1.000000
v -1.000000 0.000000 0.951968
v -0.985932 0.000000 0.985932
v -1.000000 0.000000 -0.951968
v -0.951968 0.000000 -1.000000
v -0.985932 0.000000 -0.985932
v 1.000000 0.000000 0.951968
v 0.951968 0.000000 1.000000
v 0.985932 0.000000 0.985932
v 0.951968 0.000000 -1.000000
v 1.000000 0.000000 -0.951968
v 0.985932 0.000000 -0.985932
v -0.921867 1.000000 0.871896
v -0.871896 1.000000 0.921867
v -0.907231 1.000000 0.907231
v -1.000000 0.921867 0.951783
v -0.951783 0.921867 1.000000
v -0.985878 0.921867 0.985878
v -0.960933 0.989532 0.911377
v -0.911377 0.989532 0.960933
v -0.946419 0.989532 0.946419
v -0.989532 0.960933 0.940777
v -0.940777 0.960933 0.989532
v -0.975252 0.960933 0.975252
v -0.871896 1.000000 -0.921867
v -0.921867 1.000000 -0.871896
v -0.907231 1.000000 -0.907231
v -0.951783 0.921867 -1.000000
v -1.000000 0.921867 -0.951783
v -0.985878 0.921867 -0.985878
v -0.911377 0.989532 -0.960933
v -0.960933 0.989532 -0.911377
v -0.946419 0.989532 -0.946419
v -0.940777 0.960933 -0.989532
v -0.989532 0.960933 -0.940777
v -0.975252 0.960933 -0.975252
v 0.871896 1.000000 0.921867
v 0.921867 1.000000 0.871896
v 0.907231 1.000000 0.907231
v 0.951783 0.921867 1.000000
v 1.000000 0.921867 0.951783
v 0.985878 0.921867 0.985878
v 0.911377 0.989532 0.960933
v 0.960933 0.989532 0.911377
v 0.946419 0.989532 0.946419
v 0.940777 0.960933 0.989532
v 0.989532 0.960933 0.940777
v 0.975252 0.960933 0.975252
v 0.921867 1.000000 -0.871896
v 0.871896 1.000000 -0.921867
v 0.907231 1.000000 -0.907231
v 1.000000 0.921867 -0.951783
v 0.951783 0.921867 -1.000000
v 0.985878 0.921867 -0.985878
v 0.960933 0.989532 -0.911377
v 0.911377 0.989532 -0.960933
v 0.946419 0.989532 -0.946419
v 0.989532 0.960933 -0.940777
v 0.940777 0.960933 -0.989532
v 0.975252 0.960933 -0.975252
vn 0.0000 0.2588 0.9659
vn 0.0000 0.9659 0.2588
vn 0.0000 0.0000 -1.0000
vn 0.0000 0.0000 1.0000
vn 1.0000 0.0000 0.0000
vn 0.0000 -1.0000 0.0000
vn 0.0693 0.7071 -0.7037
vn 0.2053 0.7071 -0.6767
vn 0.3333 0.7071 -0.6236
vn 0.4486 0.7071 -0.5466
vn 0.5466 0.7071 -0.4486
vn 0.6236 0.7071 -0.3333
vn 0.6767 0.7071 -0.2053
vn 0.7037 0.7071 -0.0693
vn 0.7037 0.7071 0.0693
vn 0.6767 0.7071 0.2053
vn 0.6236 0.7071 0.3333
vn 0.5466 0.7071 0.4486
vn 0.4486 0.7071 0.5466
vn 0.3333 0.7071 0.6236
vn 0.2053 0.7071 0.6767
vn 0.0693 0.7071 0.7037
vn -0.0693 0.7071 0.7037
vn -0.2053 0.7071 0.6767
vn -0.3333 0.7071 0.6236
vn -0.4486 0.7071 0.5466
vn -0.5466 0.7071 0.4486
vn -0.6236 0.7071 0.3333
vn -0.6767 0.7071 0.2053
vn -0.7037 0.7071 0.0693
vn -0.7037 0.7071 -0.0693
vn -0.6767 0.7071 -0.2053
vn -0.6236 0.7071 -0.3333
vn -0.5466 0.7071 -0.4486
vn -0.4486 0.7071 -0.5466
vn -0.3333 0.7071 -0.6236
vn -0.2053 0.7071 -0.6767
vn -0.0693 0.7071 -0.7037
vn 0.0000 1.0000 0.0000
vn 0.0000 0.7071 0.7071
vn -0.7071 0.7071 0.0000
vn 0.0000 0.2588 -0.9659
vn 0.2588 0.9659 0.0000
vn 0.0000 0.7071 -0.7071
vn 0.9659 0.2588 0.0000
vn 0.7071 0.7071 0.0000
vn -0.2588 0.9659 0.0000
vn 0.0000 0.9659 -0.2588
vn -0.9659 0.2588 0.0000
vn -1.0000 0.0000 0.0000
vn -0.0767 0.9797 0.1851
vn -0.1851 0.9797 0.0767
vn -0.0767 0.9797 -0.1851
vn -0.1851 0.9797 -0.0766
vn -0.2314 0.7965 0.5586
vn -0.5586 0.7965 0.2314
vn -0.2314 0.7965 -0.5586
vn -0.5586 0.7965 -0.2314
vn -0.3606 0.3348 0.8705
vn -0.8705 0.3349 0.3606
vn -0.3606 0.3349 -0.8705
vn -0.8705 0.3349 -0.3606
vn 0.1851 0.9797 -0.0767
vn 0.0766 0.9797 -0.1851
vn 0.5586 0.7965 -0.2314
vn 0.2314 0.7965 -0.5586
vn 0.8705 0.3349 -0.3606
vn 0.3606 0.3349 -0.8705
vn 0.0767 0.9797 0.1851
vn 0.1851 0.9797 0.0766
vn 0.2314 0.7965 0.5586
vn 0.5586 0.7965 0.2314
vn 0.3606 0.3349 0.8705
vn 0.8705 0.3349 0.3606
vn 0.9239 0.0001 0.3827
vn 0.3827 0.0001 0.9239
vn -0.9239 0.0001 0.3827
vn -0.3827 0.0001 0.9239
vn -0.3827 0.0001 -0.9239
vn -0.9239 0.0001 -0.3827
vn 0.9239 0.0001 -0.3827
vn 0.3827 0.0001 -0.9239
vn -0.0766 0.9797 0.1851
vn -0.1851 0.9797 -0.0767
vn -0.3606 0.3349 0.8705
vn -0.3606 0.3348 -0.8705
vn 0.0767 0.9797 -0.1851
vn 0.3606 0.3348 -0.8705
vn 0.1851 0.9797 0.0767
vn 0.3606 0.3348 0.8705
vn -0.1808 0.3756 -0.9090
vn 0.0000 -0.6857 -0.7279
vn -0.1420 -0.6857 -0.7139
vn 0.3547 0.3756 -0.8562
vn 0.4044 -0.6857 -0.6052
vn 0.2786 -0.6857 -0.6725
vn 0.5149 0.3756 -0.7706
vn 0.5147 -0.6857 -0.5147
vn 0.6553 0.3756 -0.6553
vn 0.6052 -0.6857 -0.4044
vn 0.7706 0.3756 -0.5149
vn 0.6725 -0.6857 -0.2786
vn 0.8562 0.3756 -0.3547
vn 0.7139 -0.6857 -0.1420
vn 0.9090 0.3756 -0.1808
vn 0.7279 -0.6857 0.0000
vn 0.9268 0.3756 0.0000
vn 0.7139 -0.6857 0.1420
vn 0.9090 0.3756 0.1808
vn 0.6725 -0.6857 0.2786
vn 0.8562 0.3756 0.3547
vn 0.6052 -0.6857 0.4044
vn 0.7706 0.3756 0.5149
vn 0.5147 -0.6857 0.5147
vn 0.6553 0.3756 0.6553
vn 0.4044 -0.6857 0.6052
vn 0.5149 0.3756 0.7706
vn 0.2785 -0.6857 0.6725
vn 0.3547 0.3756 0.8562
vn 0.1420 -0.6857 0.7139
vn 0.1808 0.3756 0.9090
vn -0.0000 -0.6857 0.7279
vn 0.0000 0.3756 0.9268
vn -0.1420 -0.6857 0.7139
vn -0.1808 0.3756 0.9090
vn -0.2786 -0.6857 0.6725
vn -0.3547 0.3756 0.8562
vn -0.4044 -0.6857 0.6052
vn -0.5149 0.3756 0.7706
vn -0.5147 -0.6857 0.5147
vn -0.6553 0.3756 0.6553
vn -0.6052 -0.6857 0.4044
vn -0.7706 0.3756 0.5149
vn -0.6725 -0.6857 0.2785
vn -0.8562 0.3756 0.3547
vn -0.7139 -0.6857 0.1420
vn -0.9090 0.3756 0.1808
vn -0.7279 -0.6857 -0.0000
vn -0.9268 0.3756 0.0000
vn -0.7139 -0.6857 -0.1420
vn -0.9090 0.3756 -0.1808
vn -0.6725 -0.6857 -0.2786
vn -0.8562 0.3756 -0.3547
vn -0.6052 -0.6857 -0.4044
vn -0.7706 0.3756 -0.5149
vn -0.5147 -0.6857 -0.5147
vn -0.6553 0.3756 -0.6553
vn -0.4044 -0.6857 -0.6052
vn -0.5149 0.3756 -0.7706
vn -0.2786 -0.6857 -0.6725
vn -0.3547 0.3756 -0.8562
vn 0.0000 0.3756 -0.9268
vn 0.1420 -0.6857 -0.7139
vn 0.1808 0.3756 -0.9090
s off
f 119//1 136//1 142//1
f 133//2 116//2 139//2
f 124//3 106//3 101//3
f 136//4 97//4 104//4
f 148//5 103//5 107//5
f 32//6 8//6 16//6
f 36//7 33//7 35//7
f 38//8 35//8 37//8
f 38//9 39//9 40//9
f 40//10 41//10 42//10
f 44//11 41//11 43//11
f 46//12 43//12 45//12
f 46//13 47//13 48//13
f 48//14 49//14 50//14
f 52//15 49//15 51//15
f 54//16 51//16 53//16
f 56//17 53//17 55//17
f 58//18 55//18 57//18
f 60//19 57//19 59//19
f 62//20 59//20 61//20
f 62//21 63//21 64//21
f 64//22 65//22 66//22
f 66//23 67//23 68//23
f 70//24 67//24 69//24
f 72//25 69//25 71//25
f 74//26 71//26 73//26
f 74//27 75//27 76//27
f 76//28 77//28 78//28
f 78//29 79//29 80//29
f 80//30 81//30 82//30
f 84//31 81//31 83//31
f 86//32 83//32 85//32
f 86//33 87//33 88//33
f 88//34 89//34 90//34
f 90//35 91//35 92//35
f 92//36 93//36 94//36
f 94//37 95//37 96//37
f 96//38 33//38 34//38
f 85//39 69//39 53//39
f 110//39 134//39 121//39
f 116//40 142//40 139//40
f 128//41 118//41 115//41
f 155//42 124//42 130//42
f 145//43 140//43 151//43
f 152//44 130//44 127//44
f 143//45 148//45 154//45
f 140//46 154//46 151//46
f 109//47 128//47 115//47
f 121//48 152//48 127//48
f 131//49 112//49 118//49
f 112//50 100//50 98//50
f 116//51 111//51 117//51
f 111//52 115//52 117//52
f 127//53 123//53 121//53
f 123//54 128//54 122//54
f 119//55 117//55 120//55
f 117//56 118//56 120//56
f 130//57 129//57 127//57
f 129//58 131//58 128//58
f 113//59 120//59 114//59
f 120//60 112//60 114//60
f 124//61 132//61 130//61
f 132//62 125//62 131//62
f 151//63 147//63 145//63
f 147//64 152//64 146//64
f 154//65 153//65 151//65
f 153//66 155//66 152//66
f 148//67 156//67 154//67
f 156//68 149//68 155//68
f 139//69 135//69 133//69
f 135//70 140//70 134//70
f 142//71 141//71 139//71
f 141//72 143//72 140//72
f 136//73 144//73 142//73
f 144//74 137//74 143//74
f 103//75 138//75 105//75
f 138//76 104//76 105//76
f 98//77 114//77 112//77
f 114//78 97//78 113//78
f 101//79 126//79 124//79
f 126//80 100//80 125//80
f 107//81 150//81 148//81
f 150//82 106//82 149//82
f 104//6 98//6 106//6
f 119//1 113//1 136//1
f 133//2 110//2 116//2
f 124//3 149//3 106//3
f 136//4 113//4 97//4
f 148//5 137//5 103//5
f 32//6 1//6 2//6
f 2//6 3//6 4//6
f 4//6 5//6 6//6
f 6//6 7//6 8//6
f 8//6 9//6 10//6
f 10//6 11//6 12//6
f 12//6 13//6 14//6
f 14//6 15//6 16//6
f 16//6 17//6 20//6
f 17//6 18//6 20//6
f 18//6 19//6 20//6
f 20//6 21//6 22//6
f 22//6 23//6 24//6
f 24//6 25//6 26//6
f 26//6 27//6 28//6
f 28//6 29//6 30//6
f 30//6 31//6 28//6
f 31//6 32//6 28//6
f 32//6 2//6 8//6
f 2//6 4//6 8//6
f 4//6 6//6 8//6
f 8//6 10//6 12//6
f 12//6 14//6 8//6
f 14//6 16//6 8//6
f 20//6 22//6 16//6
f 22//6 24//6 16//6
f 24//6 26//6 28//6
f 24//6 28//6 16//6
f 28//6 32//6 16//6
f 36//7 34//7 33//7
f 38//8 36//8 35//8
f 38//9 37//9 39//9
f 40//10 39//10 41//10
f 44//11 42//11 41//11
f 46//12 44//12 43//12
f 46//13 45//13 47//13
f 48//14 47//14 49//14
f 52//15 50//15 49//15
f 54//16 52//16 51//16
f 56//17 54//17 53//17
f 58//18 56//18 55//18
f 60//19 58//19 57//19
f 62//20 60//20 59//20
f 62//21 61//21 63//21
f 64//22 63//22 65//22
f 66//23 65//23 67//23
f 70//24 68//24 67//24
f 72//25 70//25 69//25
f 74//26 72//26 71//26
f 74//27 73//27 75//27
f 76//28 75//28 77//28
f 78//29 77//29 79//29
f 80//30 79//30 81//30
f 84//31 82//31 81//31
f 86//32 84//32 83//32
f 86//33 85//33 87//33
f 88//34 87//34 89//34
f 90//35 89//35 91//35
f 92//36 91//36 93//36
f 94//37 93//37 95//37
f 96//38 95//38 33//38
f 37//39 35//39 33//39
f 33//39 95//39 93//39
f 93//39 91//39 89//39
f 89//39 87//39 93//39
f 87//39 85//39 93//39
f 85//39 83//39 81//39
f 81//39 79//39 85//39
f 79//39 77//39 85//39
f 77//39 75//39 73//39
f 73//39 71//39 69//39
f 69//39 67//39 65//39
f 65//39 63//39 61//39
f 61//39 59//39 57//39
f 57//39 55//39 53//39
f 53//39 51//39 49//39
f 49//39 47//39 45//39
f 45//39 43//39 41//39
f 41//39 39//39 45//39
f 39//39 37//39 45//39
f 37//39 33//39 85//39
f 33//39 93//39 85//39
f 77//39 73//39 85//39
f 73//39 69//39 85//39
f 69//39 65//39 53//39
f 65//39 61//39 53//39
f 61//39 57//39 53//39
f 53//39 49//39 37//39
f 49//39 45//39 37//39
f 37//39 85//39 53//39
f 134//39 145//39 146//39
f 145//39 147//39 146//39
f 146//39 121//39 134//39
f 121//39 123//39 122//39
f 122//39 109//39 110//39
f 109//39 111//39 110//39
f 110//39 133//39 134//39
f 133//39 135//39 134//39
f 121//39 122//39 110//39
f 116//40 119//40 142//40
f 128//41 131//41 118//41
f 155//42 149//42 124//42
f 145//43 134//43 140//43
f 152//44 155//44 130//44
f 143//45 137//45 148//45
f 140//46 143//46 154//46
f 109//47 122//47 128//47
f 121//48 146//48 152//48
f 131//49 125//49 112//49
f 112//50 125//50 100//50
f 116//83 110//83 111//83
f 111//52 109//52 115//52
f 127//53 129//53 123//53
f 123//84 129//84 128//84
f 119//55 116//55 117//55
f 117//56 115//56 118//56
f 130//57 132//57 129//57
f 129//58 132//58 131//58
f 113//85 119//85 120//85
f 120//60 118//60 112//60
f 124//86 126//86 132//86
f 132//62 126//62 125//62
f 151//63 153//63 147//63
f 147//87 153//87 152//87
f 154//65 156//65 153//65
f 153//66 156//66 155//66
f 148//67 150//67 156//67
f 156//88 150//88 149//88
f 139//69 141//69 135//69
f 135//89 141//89 140//89
f 142//71 144//71 141//71
f 141//72 144//72 143//72
f 136//90 138//90 144//90
f 144//74 138//74 137//74
f 103//75 137//75 138//75
f 138//76 136//76 104//76
f 98//77 99//77 114//77
f 114//78 99//78 97//78
f 101//79 102//79 126//79
f 126//80 102//80 100//80
f 107//81 108//81 150//81
f 150//82 108//82 106//82
f 98//6 100//6 101//6
f 100//6 102//6 101//6
f 101//6 106//6 98//6
f 106//6 108//6 107//6
f 107//6 103//6 104//6
f 103//6 105//6 104//6
f 104//6 97//6 98//6
f 97//6 99//6 98//6
f 106//6 107//6 104//6
s 1
f 96//91 1//92 32//93
f 38//94 4//95 3//96
f 40//97 5//98 4//95
f 42//99 6//100 5//98
f 44//101 7//102 6//100
f 46//103 8//104 7//102
f 48//105 9//106 8//104
f 50//107 10//108 9//106
f 52//109 11//110 10//108
f 54//111 12//112 11//110
f 56//113 13//114 12//112
f 58//115 14//116 13//114
f 60//117 15//118 14//116
f 62//119 16//120 15//118
f 64//121 17//122 16//120
f 66//123 18//124 17//122
f 68//125 19//126 18//124
f 70//127 20//128 19//126
f 72//129 21//130 20//128
f 74//131 22//132 21//130
f 76//133 23//134 22//132
f 78//135 24//136 23//134
f 80//137 25//138 24//136
f 82//139 26//140 25//138
f 84//141 27//142 26//140
f 86//143 28//144 27//142
f 88//145 29//146 28//144
f 90//147 30//148 29//146
f 92//149 31//150 30//148
f 94//151 32//93 31//150
f 34//152 2//153 1//92
f 36//154 3//96 2//153
f 96//91 34//152 1//92
f 38//94 40//97 4//95
f 40//97 42//99 5//98
f 42//99 44//101 6//100
f 44//101 46//103 7//102
f 46//103 48//105 8//104
f 48//105 50//107 9//106
f 50//107 52//109 10//108
f 52//109 54//111 11//110
f 54//111 56//113 12//112
f 56//113 58//115 13//114
f 58//115 60//117 14//116
f 60//117 62//119 15//118
f 62//119 64//121 16//120
f 64//121 66//123 17//122
f 66//123 68//125 18//124
f 68//125 70//127 19//126
f 70//127 72//129 20//128
f 72//129 74//131 21//130
f 74//131 76//133 22//132
f 76//133 78//135 23//134
f 78//135 80//137 24//136
f 80//137 82//139 25//138
f 82//139 84//141 26//140
f 84//141 86//143 27//142
f 86//143 88//145 28//144
f 88//145 90//147 29//146
f 90//147 92//149 30//148
f 92//149 94//151 31//150
f 94//151 96//91 32//93
f 34//152 36//154 2//153
f 36//154 38//94 3//96
